<svg id="play-butto" xmlns="http://www.w3.org/2000/svg" width="53.996" height="53.996" viewBox="0 0 53.996 53.996">
  <path id="Path_28" data-name="Path 28" d="M46.089,7.907A27,27,0,0,0,7.907,46.089,27,27,0,0,0,46.089,7.907ZM27,50.832A23.834,23.834,0,1,1,50.832,27,23.861,23.861,0,0,1,27,50.832Z" transform="translate(0)" fill="#fff"/>
  <path id="Path_29" data-name="Path 29" d="M192.491,125.01,173.508,111.3A1.582,1.582,0,0,0,171,112.582V140a1.582,1.582,0,0,0,2.508,1.282l18.983-13.71a1.582,1.582,0,0,0,0-2.565Zm-18.327,11.9V115.676l14.7,10.616Z" transform="translate(-152.966 -99.294)" fill="#fff"/>
</svg>
