<svg xmlns="http://www.w3.org/2000/svg" width="74" height="74" viewBox="0 0 74 74">
  <g id="services1" transform="translate(-381 -2986)">
    <circle id="Ellipse_3" data-name="Ellipse 3" cx="37" cy="37" r="37" transform="translate(381 2986)" fill="#304cbb"/>
    <path id="search" d="M21.392,13.073A8.012,8.012,0,0,0,18.95,7.2a8.015,8.015,0,0,0-5.877-2.443A8.01,8.01,0,0,0,7.2,7.2a8.01,8.01,0,0,0-2.442,5.878A8.016,8.016,0,0,0,7.2,18.95a8.011,8.011,0,0,0,5.878,2.442A8.008,8.008,0,0,0,18.95,18.95,8.02,8.02,0,0,0,21.392,13.073ZM30.9,28.523A2.41,2.41,0,0,1,28.523,30.9a2.207,2.207,0,0,1-1.671-.706l-6.37-6.351a12.716,12.716,0,0,1-7.409,2.3,12.842,12.842,0,0,1-5.079-1.031,12.8,12.8,0,0,1-6.964-6.964,13.026,13.026,0,0,1,0-10.157A12.8,12.8,0,0,1,7.994,1.031a13.026,13.026,0,0,1,10.157,0,12.8,12.8,0,0,1,6.964,6.964,12.826,12.826,0,0,1,1.031,5.079,12.713,12.713,0,0,1-2.3,7.409l6.37,6.37A2.275,2.275,0,0,1,30.9,28.523Z" transform="translate(403 3008)" fill="#fff"/>
  </g>
</svg>
